<?xml version="1.0"?>
<svg xmlns="http://www.w3.org/2000/svg" xmlns:xlink="http://www.w3.org/1999/xlink" xmlns:svgjs="http://svgjs.com/svgjs" version="1.1" width="512" height="512" x="0" y="0" viewBox="0 0 495 495" style="enable-background:new 0 0 512 512" xml:space="preserve" class=""><g transform="matrix(1,0,0,1,0,0)">
<g xmlns="http://www.w3.org/2000/svg">
	<path style="" d="M247.5,0v140.792l131.619,131.191l-28.238,28.33L247.5,197.269V495C384.19,495,495,384.19,495,247.5   S384.19,0,247.5,0z" fill="#4e494b" data-original="#9bc9ff" class=""/>
	<path style="" d="M144.119,300.313l-28.238-28.33L247.5,140.792V0C110.81,0,0,110.81,0,247.5S110.81,495,247.5,495   V197.269L144.119,300.313z" fill="#4e494b" data-original="#bddbff" class=""/>
	<polygon style="" points="144.119,300.313 247.5,197.269 350.881,300.313 379.119,271.983 247.5,140.792    115.881,271.983  " fill="#f75c9e" data-original="#2488ff" class=""/>
</g>
<g xmlns="http://www.w3.org/2000/svg">
</g>
<g xmlns="http://www.w3.org/2000/svg">
</g>
<g xmlns="http://www.w3.org/2000/svg">
</g>
<g xmlns="http://www.w3.org/2000/svg">
</g>
<g xmlns="http://www.w3.org/2000/svg">
</g>
<g xmlns="http://www.w3.org/2000/svg">
</g>
<g xmlns="http://www.w3.org/2000/svg">
</g>
<g xmlns="http://www.w3.org/2000/svg">
</g>
<g xmlns="http://www.w3.org/2000/svg">
</g>
<g xmlns="http://www.w3.org/2000/svg">
</g>
<g xmlns="http://www.w3.org/2000/svg">
</g>
<g xmlns="http://www.w3.org/2000/svg">
</g>
<g xmlns="http://www.w3.org/2000/svg">
</g>
<g xmlns="http://www.w3.org/2000/svg">
</g>
<g xmlns="http://www.w3.org/2000/svg">
</g>
</g></svg>
